<svg xmlns="http://www.w3.org/2000/svg" width="36" height="36" viewBox="0 0 36 36">
    <g data-name="Group 26498">
        <g data-name="Group 26499">
            <g data-name="3Zd89L.tif">
                <g data-name="Group 25569">
                    <path data-name="Path 10590" d="M1144.457 484.639h1.49a1.288 1.288 0 0 0 .192.046 10.5 10.5 0 0 1 6.39 2.773 10.726 10.726 0 0 1 3.511 9.979 15.142 15.142 0 0 1-2.327 5.8 34.63 34.63 0 0 1-8.131 8.741c-.314.246-.45.242-.787-.023a35.537 35.537 0 0 1-7.689-8.076 16.921 16.921 0 0 1-2.641-5.89c-.109-.51-.175-1.029-.261-1.544V494.9c.1-.6.149-1.213.306-1.8a10.839 10.839 0 0 1 8.071-8.13c.608-.17 1.249-.223 1.876-.331zm.742 2.751a8.254 8.254 0 1 0 8.252 8.222 8.256 8.256 0 0 0-8.251-8.222z" transform="translate(-1127.202 -480.639)" style="fill:#787878"/>
                </g>
            </g>
        </g>
    </g>
</svg>
